<svg xmlns="http://www.w3.org/2000/svg" viewBox="0 0 256 256" width="256" height="256">
  <defs>
    <linearGradient id="bg" x1="0%" y1="0%" x2="100%" y2="100%">
      <stop offset="0%" style="stop-color:#1B5E20;stop-opacity:1" />
      <stop offset="100%" style="stop-color:#2E7D32;stop-opacity:1" />
    </linearGradient>
  </defs>
  <!-- Background circle -->
  <circle cx="128" cy="128" r="120" fill="url(#bg)"/>
  <!-- Mosque dome -->
  <path d="M128 50 C128 50 80 80 80 110 L80 170 L176 170 L176 110 C176 80 128 50 128 50Z" fill="#FFFFFF" opacity="0.95"/>
  <!-- Minaret left -->
  <rect x="60" y="100" width="16" height="70" rx="3" fill="#FFFFFF" opacity="0.95"/>
  <rect x="56" y="95" width="24" height="10" rx="5" fill="#FFFFFF" opacity="0.95"/>
  <!-- Minaret right -->
  <rect x="180" y="100" width="16" height="70" rx="3" fill="#FFFFFF" opacity="0.95"/>
  <rect x="176" y="95" width="24" height="10" rx="5" fill="#FFFFFF" opacity="0.95"/>
  <!-- Door -->
  <path d="M115 170 L115 140 C115 132 128 125 128 125 C128 125 141 132 141 140 L141 170Z" fill="#1B5E20" opacity="0.8"/>
  <!-- Crescent on top -->
  <circle cx="128" cy="48" r="12" fill="#FFD54F"/>
  <circle cx="132" cy="46" r="10" fill="url(#bg)"/>
  <!-- Star -->
  <polygon points="128,32 130,38 136,38 131,42 133,48 128,44 123,48 125,42 120,38 126,38" fill="#FFD54F"/>
  <!-- Base line -->
  <rect x="50" y="170" width="156" height="6" rx="3" fill="#FFFFFF" opacity="0.95"/>
  <!-- Text -->
  <text x="128" y="202" text-anchor="middle" font-family="Arial,sans-serif" font-size="18" font-weight="bold" fill="#FFFFFF">Muslim Assistant</text>
</svg>
